<svg width="97" height="94" viewBox="0 0 97 94" fill="none" xmlns="http://www.w3.org/2000/svg">
<path fill-rule="evenodd" clip-rule="evenodd" d="M97 47C97 72.9574 75.2858 94 48.5 94C21.7142 94 0 72.9574 0 47C0 21.0426 21.7142 0 48.5 0C75.2858 0 97 21.0426 97 47ZM21.8964 32.648C21.8964 32.904 21.8404 33.12 21.7284 33.296C21.6164 33.472 21.4804 33.616 21.3204 33.728C21.1604 33.84 20.9924 33.928 20.8164 33.992C20.6404 34.04 20.4884 34.064 20.3604 34.064C19.3524 34.064 18.6084 34.376 18.1284 35C17.6644 35.624 17.4324 36.488 17.4324 37.592C17.4324 38.472 17.4644 39.304 17.5284 40.088C17.6084 40.872 17.6884 41.632 17.7684 42.368C17.8484 43.088 17.9204 43.8 17.9844 44.504C18.0644 45.208 18.1044 45.92 18.1044 46.64C18.1044 47.248 18.0244 47.832 17.8644 48.392C17.7044 48.952 17.4564 49.472 17.1204 49.952C16.8004 50.416 16.4004 50.824 15.9204 51.176C15.4404 51.528 14.8884 51.8 14.2644 51.992C14.8884 52.184 15.4404 52.464 15.9204 52.832C16.4004 53.184 16.8004 53.6 17.1204 54.08C17.4564 54.544 17.7044 55.064 17.8644 55.64C18.0244 56.2 18.1044 56.776 18.1044 57.368C18.1044 58.088 18.0644 58.8 17.9844 59.504C17.9204 60.208 17.8484 60.928 17.7684 61.664C17.6884 62.384 17.6084 63.136 17.5284 63.92C17.4644 64.704 17.4324 65.536 17.4324 66.416C17.4324 67.52 17.6644 68.384 18.1284 69.008C18.6084 69.632 19.3524 69.944 20.3604 69.944C20.4884 69.944 20.6404 69.968 20.8164 70.016C20.9924 70.08 21.1604 70.168 21.3204 70.28C21.4804 70.392 21.6164 70.536 21.7284 70.712C21.8404 70.888 21.8964 71.104 21.8964 71.36V74.576H20.6484C18.9524 74.576 17.4964 74.368 16.2804 73.952C15.0644 73.552 14.0564 72.968 13.2564 72.2C12.4724 71.448 11.8884 70.544 11.5044 69.488C11.1364 68.432 10.9524 67.256 10.9524 65.96C10.9524 65.224 10.9924 64.488 11.0724 63.752C11.1684 63.016 11.2724 62.288 11.3844 61.568C11.4964 60.848 11.5924 60.128 11.6724 59.408C11.7684 58.688 11.8164 57.976 11.8164 57.272C11.8164 56.312 11.6324 55.544 11.2644 54.968C10.8964 54.376 10.2324 54.08 9.27242 54.08V49.928C9.75242 49.928 10.1524 49.848 10.4724 49.688C10.8084 49.528 11.0724 49.312 11.2644 49.04C11.4564 48.752 11.5924 48.416 11.6724 48.032C11.7684 47.632 11.8164 47.2 11.8164 46.736C11.8164 46.032 11.7684 45.32 11.6724 44.6C11.5924 43.88 11.4964 43.16 11.3844 42.44C11.2724 41.72 11.1684 40.992 11.0724 40.256C10.9924 39.52 10.9524 38.784 10.9524 38.048C10.9524 36.752 11.1364 35.576 11.5044 34.52C11.8884 33.448 12.4724 32.536 13.2564 31.784C14.0564 31.032 15.0644 30.456 16.2804 30.056C17.4964 29.64 18.9524 29.432 20.6484 29.432H21.8964V32.648ZM86.3448 53.9785C86.7128 53.3865 87.3768 53.0905 88.3368 53.0905V48.9385C87.8568 48.9385 87.4488 48.8585 87.1128 48.6985C86.7928 48.5385 86.5368 48.3225 86.3448 48.0505C86.1528 47.7625 86.0088 47.4265 85.9128 47.0425C85.8328 46.6425 85.7928 46.2105 85.7928 45.7465C85.7928 45.0425 85.8328 44.3305 85.9128 43.6105C86.0088 42.8905 86.1128 42.1705 86.2248 41.4505C86.3368 40.7305 86.4328 40.0025 86.5128 39.2665C86.6088 38.5305 86.6568 37.7945 86.6568 37.0585C86.6568 35.7625 86.4648 34.5865 86.0808 33.5305C85.7128 32.4585 85.1288 31.5465 84.3288 30.7945C83.5448 30.0425 82.5448 29.4665 81.3288 29.0665C80.1128 28.6505 78.6568 28.4425 76.9608 28.4425H75.7128V31.6585C75.7128 31.9145 75.7688 32.1305 75.8808 32.3065C75.9928 32.4825 76.1288 32.6265 76.2888 32.7385C76.4488 32.8505 76.6168 32.9385 76.7928 33.0025C76.9688 33.0505 77.1208 33.0745 77.2488 33.0745C78.2568 33.0745 78.9928 33.3865 79.4568 34.0105C79.9368 34.6345 80.1768 35.4985 80.1768 36.6025C80.1768 37.4825 80.1368 38.3145 80.0568 39.0985C79.9928 39.8825 79.9208 40.6425 79.8408 41.3785C79.7608 42.0985 79.6808 42.8105 79.6008 43.5145C79.5368 44.2185 79.5048 44.9305 79.5048 45.6505C79.5048 46.2585 79.5848 46.8425 79.7448 47.4025C79.9048 47.9625 80.1448 48.4825 80.4648 48.9625C80.8008 49.4265 81.2088 49.8345 81.6888 50.1865C82.1688 50.5385 82.7208 50.8105 83.3448 51.0025C82.7208 51.1945 82.1688 51.4745 81.6888 51.8425C81.2088 52.1945 80.8008 52.6105 80.4648 53.0905C80.1448 53.5545 79.9048 54.0745 79.7448 54.6505C79.5848 55.2105 79.5048 55.7865 79.5048 56.3785C79.5048 57.0985 79.5368 57.8105 79.6008 58.5145C79.6808 59.2185 79.7608 59.9385 79.8408 60.6745C79.9208 61.3945 79.9928 62.1465 80.0568 62.9305C80.1368 63.7145 80.1768 64.5465 80.1768 65.4265C80.1768 66.5305 79.9368 67.3945 79.4568 68.0185C78.9928 68.6425 78.2568 68.9545 77.2488 68.9545C77.1208 68.9545 76.9688 68.9785 76.7928 69.0265C76.6168 69.0905 76.4488 69.1785 76.2888 69.2905C76.1288 69.4025 75.9928 69.5465 75.8808 69.7225C75.7688 69.8985 75.7128 70.1145 75.7128 70.3705V73.5865H76.9608C78.6568 73.5865 80.1128 73.3785 81.3288 72.9625C82.5448 72.5625 83.5448 71.9785 84.3288 71.2105C85.1288 70.4585 85.7128 69.5545 86.0808 68.4985C86.4648 67.4425 86.6568 66.2665 86.6568 64.9705C86.6568 64.2345 86.6088 63.4985 86.5128 62.7625C86.4328 62.0265 86.3368 61.2985 86.2248 60.5785C86.1128 59.8585 86.0088 59.1385 85.9128 58.4185C85.8328 57.6985 85.7928 56.9865 85.7928 56.2825C85.7928 55.3225 85.9768 54.5545 86.3448 53.9785ZM44.9263 61.3474C44.9263 66.2656 40.812 70.2526 35.7368 70.2526C30.6616 70.2526 26.5474 66.2656 26.5474 61.3474C26.5474 56.4291 30.6616 52.4421 35.7368 52.4421C40.812 52.4421 44.9263 56.4291 44.9263 61.3474ZM61.2632 47.4947C66.3384 47.4947 70.4526 43.5077 70.4526 38.5895C70.4526 33.6712 66.3384 29.6842 61.2632 29.6842C56.188 29.6842 52.0737 33.6712 52.0737 38.5895C52.0737 43.5077 56.188 47.4947 61.2632 47.4947ZM35.7368 29.6842L46.3479 45.2684H25.1258L35.7368 29.6842ZM69.4316 52.4421H51.0526V70.2526H69.4316V52.4421Z" fill="#EFB99D"/>
</svg>
